<?xml version="1.0" encoding="utf-8"?>
<svg xmlns="http://www.w3.org/2000/svg" style="margin: auto; background: rgb(241, 242, 243); display: block; shape-rendering: auto;" width="280" height="250" preserveAspectRatio="xMidYMid">
<style type="text/css">
  text {
    text-anchor: middle; font-size: 146px; opacity: 0;
  }
</style>
<g style="transform-origin: 140px 125px; transform: scale(1.825);">
<g transform="translate(140,125)">
  <g transform="translate(0,0)"><g class="path" style="transform: scale(0.91); transform-origin: -459.4px -0.712677px; animation: 4.16667s linear -2.64423s infinite normal forwards running breath-ab07f10c-8cc9-4bfe-a6e1-4bbca4f44520;"><path d="M50.24-47.60L50.24-47.60L50.24-47.60Q58-47.60 63.52-50.64L63.52-50.64L64.40-49.20L64.40-49.20Q59.20-46.16 52.96-45.92L52.96-45.92L52.96-45.92Q47.92-41.12 44.44-29.92L44.44-29.92L44.44-29.92Q40.96-18.72 40.96-6.08L40.96-6.08L40.96-6.08Q40.96 1.68 43.80 4.88L43.80 4.88L43.80 4.88Q46.64 8.08 50.48 8.08L50.48 8.08L50.48 8.08Q53.04 8.08 55.44 6.92L55.44 6.92L55.44 6.92Q57.84 5.76 59.16 4.64L59.16 4.64L59.16 4.64Q60.48 3.52 62.64 1.36L62.64 1.36L62.64 1.36Q61.36-2.48 61.36-10.60L61.36-10.60L61.36-10.60Q61.36-18.72 64.16-28.12L64.16-28.12L64.16-28.12Q66.96-37.52 71.60-43.52L71.60-43.52L71.60-43.52Q76.24-49.52 81.20-49.52L81.20-49.52L81.20-49.52Q83.60-49.52 84.84-48.24L84.84-48.24L84.84-48.24Q86.08-46.96 86.08-43.60L86.08-43.60L86.08-43.60Q86.08-36.80 81.72-25.52L81.72-25.52L81.72-25.52Q77.36-14.24 70.48-4.96L70.48-4.96L70.48-4.96Q71.20 1.20 74.40 4.16L74.40 4.16L74.40 4.16Q77.60 7.12 82.56 7.12L82.56 7.12L82.56 7.12Q91.68 7.12 98.96-10.32L98.96-10.32L98.96-10.32Q104.56-23.76 104.56-37.84L104.56-37.84L104.56-37.84Q104.56-51.92 99.12-57.36L99.12-57.36L100.32-58.56L100.32-58.56Q106.32-52.56 106.32-37.60L106.32-37.60L106.32-37.60Q106.32-23.68 100.64-9.60L100.64-9.60L100.64-9.60Q91.68 12 76.24 12L76.24 12L76.24 12Q68.32 12 64.64 5.68L64.64 5.68L64.64 5.68Q63.68 4.08 63.28 3.28L63.28 3.28L63.28 3.28Q54.80 12 44.56 12L44.56 12L44.56 12Q37.92 12 34.68 7.56L34.68 7.56L34.68 7.56Q31.44 3.12 31.44-3.20L31.44-3.20L31.44-3.20Q31.44-9.52 33.08-15.80L33.08-15.80L33.08-15.80Q34.72-22.08 36.88-26.56L36.88-26.56L36.88-26.56Q39.04-31.04 42.08-35.36L42.08-35.36L42.08-35.36Q46.24-41.52 50.64-45.92L50.64-45.92L50.64-45.92Q48-45.92 43.76-46.48L43.76-46.48L43.76-46.48Q34.88-46.96 34.24-46.96L34.24-46.96L34.24-46.96Q23.04-46.96 16.64-41.32L16.64-41.32L16.64-41.32Q10.24-35.68 10.24-25.76L10.24-25.76L10.24-25.76Q10.24-21.12 12.40-17.04L12.40-17.04L12.40-17.04Q13.52-14.88 17.28-12.08L17.28-12.08L17.28-12.08Q18.08-11.44 19.84-10.72L19.84-10.72L19.84-10.72Q21.60-10 21.68-10L21.68-10L23.04-9.60L22.80-7.92L22.80-7.92Q21.28-7.92 18.40-9.52L18.40-9.52L18.40-9.52Q15.52-11.12 13.48-12.92L13.48-12.92L13.48-12.92Q11.44-14.72 9.96-18.12L9.96-18.12L9.96-18.12Q8.48-21.52 8.48-25.76L8.48-25.76L8.48-25.76Q8.48-36.32 15.44-42.52L15.44-42.52L15.44-42.52Q22.40-48.72 34.24-48.72L34.24-48.72L34.24-48.72Q39.04-48.72 43.04-48.16L43.04-48.16L43.04-48.16Q47.04-47.60 50.24-47.60zM70.24-8.96L70.24-8.96L70.24-7.76L70.24-7.76Q71.04-8.88 72.32-10.96L72.32-10.96L72.32-10.96Q77.52-19.04 80.88-28.32L80.88-28.32L80.88-28.32Q84.24-37.60 84.24-43.60L84.24-43.60L84.24-43.60Q84.24-47.76 81.20-47.76L81.20-47.76L81.20-47.76Q80-47.76 78.56-47.12L78.56-47.12L78.56-47.12Q75.92-44.64 73.44-37.28L73.44-37.28L73.44-37.28Q70.24-27.84 70.24-8.96" fill="#93dbe9" stroke="none" stroke-width="none" transform="translate(-516.8000612258911,22.567326058607833)" style="fill: rgb(147, 219, 233);"></path></g><g class="path" style="transform: scale(0.91); transform-origin: -391.76px 7.36732px; animation: 4.16667s linear -2.53846s infinite normal forwards running breath-ab07f10c-8cc9-4bfe-a6e1-4bbca4f44520;"><path d="M128.56-31.12L128.56-31.12L128.56-31.12Q138.72-31.12 138.72-23.04L138.72-23.04L138.72-23.04Q138.72-18 133.96-15.40L133.96-15.40L133.96-15.40Q129.20-12.80 120.40-12.72L120.40-12.72L120.40-12.72Q120.24-9.84 120.24-8.16L120.24-8.16L120.24-8.16Q120.24-4.56 121.88-2.84L121.88-2.84L121.88-2.84Q123.52-1.12 126-1.12L126-1.12L126-1.12Q128.48-1.12 130.52-2.08L130.52-2.08L130.52-2.08Q132.56-3.04 133.76-4.36L133.76-4.36L133.76-4.36Q134.96-5.68 135.84-7.12L135.84-7.12L135.84-7.12Q137.44-9.76 137.44-10.48L137.44-10.48L138.88-9.84L138.88-9.84Q138.64-8.56 137.44-6.44L137.44-6.44L137.44-6.44Q136.24-4.32 134.80-2.96L134.80-2.96L134.80-2.96Q133.36-1.60 130.56-0.44L130.56-0.44L130.56-0.44Q127.76 0.72 124.32 0.72L124.32 0.72L124.32 0.72Q117.84 0.72 114.52-2.36L114.52-2.36L114.52-2.36Q111.20-5.44 111.20-10.80L111.20-10.80L111.20-10.80Q111.20-20.32 115.92-25.72L115.92-25.72L115.92-25.72Q120.64-31.12 128.56-31.12zM136.72-23.04L136.72-23.04Q136.72-25.68 135.16-27.40L135.16-27.40L135.16-27.40Q133.60-29.12 130.52-29.12L130.52-29.12L130.52-29.12Q127.44-29.12 124.52-25.44L124.52-25.44L124.52-25.44Q121.60-21.76 120.64-14.56L120.64-14.56L120.64-14.56Q136.72-14.64 136.72-23.04L136.72-23.04" fill="#93dbe9" stroke="none" stroke-width="none" transform="translate(-516.8000612258911,22.567326058607833)" style="fill: rgb(104, 156, 197);"></path></g><g class="path" style="transform: scale(0.91); transform-origin: -362.2px -2.99267px; animation: 4.16667s linear -2.43269s infinite normal forwards running breath-ab07f10c-8cc9-4bfe-a6e1-4bbca4f44520;"><path d="M157.68-2.88L157.68-2.88L157.68-2.88Q156.64-1.52 154.84-0.40L154.84-0.40L154.84-0.40Q153.04 0.72 150.16 0.72L150.16 0.72L150.16 0.72Q147.28 0.72 145.28-1.12L145.28-1.12L145.28-1.12Q143.28-2.96 143.28-6.32L143.28-6.32L143.28-6.32Q143.28-6.96 143.44-8.40L143.44-8.40L148.64-37.20L148.64-37.20Q150.08-45.12 152.60-48.48L152.60-48.48L152.60-48.48Q155.12-51.84 159.28-51.84L159.28-51.84L159.28-51.84Q162.16-51.84 164.04-49.68L164.04-49.68L164.04-49.68Q165.92-47.52 165.92-43.12L165.92-43.12L165.92-43.12Q165.92-38.72 162.52-30.56L162.52-30.56L162.52-30.56Q159.12-22.40 159.12-18.64L159.12-18.64L157.68-18.64L157.68-18.64Q157.68-22.88 161.04-30.76L161.04-30.76L161.04-30.76Q164.40-38.64 164.40-43.36L164.40-43.36L164.40-43.36Q164.40-46.24 163.08-48.32L163.08-48.32L163.08-48.32Q161.76-50.40 159.84-50.40L159.84-50.40L159.84-50.40Q159.76-48.32 157.08-31.72L157.08-31.72L157.08-31.72Q154.40-15.12 151.76-0.88L151.76-0.88L151.76-0.88Q154-0.88 155.92-3.20L155.92-3.20L155.92-3.20Q157.84-5.52 158.64-7.84L158.64-7.84L159.52-10.24L160.96-9.60L160.96-9.60Q160.72-8.48 159.72-6.36L159.72-6.36L159.72-6.36Q158.72-4.24 157.68-2.88" fill="#93dbe9" stroke="none" stroke-width="none" transform="translate(-516.8000612258911,22.567326058607833)" style="fill: rgb(94, 111, 163);"></path></g><g class="path" style="transform: scale(0.91); transform-origin: -337.04px 7.36732px; animation: 4.16667s linear -2.32692s infinite normal forwards running breath-ab07f10c-8cc9-4bfe-a6e1-4bbca4f44520;"><path d="M184.56-16.72L184.56-16.72L184.56-16.72Q182.88-18.40 182.88-20.80L182.88-20.80L182.88-20.80Q182.88-23.20 184.56-24.92L184.56-24.92L184.56-24.92Q186.24-26.64 188.64-26.64L188.64-26.64L188.64-26.64Q189.36-26.64 190.48-26.32L190.48-26.32L190.48-26.32Q188.96-29.12 184.80-29.12L184.80-29.12L184.80-29.12Q180.64-29.12 177.44-23.84L177.44-23.84L177.44-23.84Q174.24-18.56 174.24-8.16L174.24-8.16L174.24-8.16Q174.24-4.56 175.88-2.84L175.88-2.84L175.88-2.84Q177.52-1.12 180-1.12L180-1.12L180-1.12Q182.48-1.12 184.52-2.08L184.52-2.08L184.52-2.08Q186.56-3.04 187.76-4.36L187.76-4.36L187.76-4.36Q188.96-5.68 189.84-7.12L189.84-7.12L189.84-7.12Q191.44-9.76 191.44-10.48L191.44-10.48L192.88-9.84L192.88-9.84Q192.64-8.56 191.44-6.44L191.44-6.44L191.44-6.44Q190.24-4.32 188.80-2.96L188.80-2.96L188.80-2.96Q187.36-1.60 184.56-0.44L184.56-0.44L184.56-0.44Q181.76 0.72 178.32 0.72L178.32 0.72L178.32 0.72Q171.84 0.72 168.52-2.36L168.52-2.36L168.52-2.36Q165.20-5.44 165.20-10.80L165.20-10.80L165.20-10.80Q165.20-20.32 169.96-25.72L169.96-25.72L169.96-25.72Q174.72-31.12 182.88-31.12L182.88-31.12L182.88-31.12Q188.40-31.12 191.36-28.32L191.36-28.32L191.36-28.32Q194.32-25.52 194.32-20.96L194.32-20.96L194.32-20.96Q194.32-18.08 192.60-16.56L192.60-16.56L192.60-16.56Q190.88-15.04 188.56-15.04L188.56-15.04L188.56-15.04Q186.24-15.04 184.56-16.72" fill="#93dbe9" stroke="none" stroke-width="none" transform="translate(-516.8000612258911,22.567326058607833)" style="fill: rgb(59, 67, 104);"></path></g><g class="path" style="transform: scale(0.91); transform-origin: -303.44px 7.36732px; animation: 4.16667s linear -2.22115s infinite normal forwards running breath-ab07f10c-8cc9-4bfe-a6e1-4bbca4f44520;"><path d="M210.24 0.72L210.24 0.72Q204.08 0.72 200.88-2.36L200.88-2.36L200.88-2.36Q197.68-5.44 197.68-10.12L197.68-10.12L197.68-10.12Q197.68-14.80 198.52-18.12L198.52-18.12L198.52-18.12Q199.36-21.44 201.28-24.52L201.28-24.52L201.28-24.52Q203.20-27.60 207.08-29.36L207.08-29.36L207.08-29.36Q210.96-31.12 216.76-31.12L216.76-31.12L216.76-31.12Q222.56-31.12 225.80-28.04L225.80-28.04L225.80-28.04Q229.04-24.96 229.04-19.60L229.04-19.60L229.04-19.60Q229.04-10.48 224.20-4.88L224.20-4.88L224.20-4.88Q219.36 0.72 210.24 0.72L210.24 0.72zM206.72-7.52L206.72-7.52L206.72-7.52Q206.72-1.12 210.44-1.12L210.44-1.12L210.44-1.12Q214.16-1.12 217.08-7.56L217.08-7.56L217.08-7.56Q220-14 220-22.88L220-22.88L220-22.88Q220-29.60 216.36-29.60L216.36-29.60L216.36-29.60Q212.72-29.60 209.72-23.48L209.72-23.48L209.72-23.48Q206.72-17.36 206.72-7.52" fill="#93dbe9" stroke="none" stroke-width="none" transform="translate(-516.8000612258911,22.567326058607833)" style="fill: rgb(25, 29, 58);"></path></g><g class="path" style="transform: scale(0.91); transform-origin: -255.68px 7.36732px; animation: 4.16667s linear -2.11538s infinite normal forwards running breath-ab07f10c-8cc9-4bfe-a6e1-4bbca4f44520;"><path d="M263.44-0.88L263.44-0.88L263.44-0.88Q265.36-0.88 267.44-3.12L267.44-3.12L268.64-2.16L268.64-2.16Q268.08-1.04 266.16-0.16L266.16-0.16L266.16-0.16Q264.24 0.72 261.92 0.72L261.92 0.72L261.92 0.72Q254.64 0.72 254.64-5.84L254.64-5.84L254.64-5.84Q254.64-8.64 256.08-15.84L256.08-15.84L256.08-15.84Q257.52-23.04 257.52-25.28L257.52-25.28L257.52-25.28Q257.52-28.72 254.24-28.72L254.24-28.72L254.24-28.72Q249.28-28.72 245.92-16L245.92-16L243.04 0L233.44 0L238.72-29.52L238.72-29.52Q236.32-29.28 234.72-27.28L234.72-27.28L233.52-28.24L233.52-28.24Q235.92-31.12 239.56-31.12L239.56-31.12L239.56-31.12Q243.20-31.12 245.20-29.28L245.20-29.28L245.20-29.28Q247.20-27.44 247.20-24.08L247.20-24.08L247.20-23.84L247.20-23.84Q250.32-31.12 256.64-31.12L256.64-31.12L256.64-31.12Q261.12-31.12 263.72-28.68L263.72-28.68L263.72-28.68Q266.32-26.24 266.56-21.84L266.56-21.84L266.56-21.84Q268.08-26.24 270.40-28.68L270.40-28.68L270.40-28.68Q272.72-31.12 277.12-31.12L277.12-31.12L277.12-31.12Q281.52-31.12 284.16-28.44L284.16-28.44L284.16-28.44Q286.80-25.76 286.80-21.04L286.80-21.04L286.80-21.04Q286.80-18.56 285.28-11.48L285.28-11.48L285.28-11.48Q283.76-4.40 283.60-0.88L283.60-0.88L283.60-0.88Q285.52-0.88 287.60-3.12L287.60-3.12L288.80-2.16L288.80-2.16Q288.24-1.04 286.32-0.16L286.32-0.16L286.32-0.16Q284.40 0.72 282.08 0.72L282.08 0.72L282.08 0.72Q274.80 0.72 274.80-5.84L274.80-5.84L274.80-5.84Q274.80-8.64 276.24-15.84L276.24-15.84L276.24-15.84Q277.68-23.04 277.68-25.28L277.68-25.28L277.68-25.28Q277.68-28.72 274.40-28.72L274.40-28.72L274.40-28.72Q268.64-28.72 265.12-11.60L265.12-11.60L265.12-11.60Q263.60-4.32 263.44-0.88" fill="#93dbe9" stroke="none" stroke-width="none" transform="translate(-516.8000612258911,22.567326058607833)" style="fill: rgb(217, 219, 238);"></path></g><g class="path" style="transform: scale(0.91); transform-origin: -210.48px 7.36732px; animation: 4.16667s linear -2.00962s infinite normal forwards running breath-ab07f10c-8cc9-4bfe-a6e1-4bbca4f44520;"><path d="M309.84-31.12L309.84-31.12L309.84-31.12Q320.00-31.12 320.00-23.04L320.00-23.04L320.00-23.04Q320.00-18 315.24-15.40L315.24-15.40L315.24-15.40Q310.48-12.80 301.68-12.72L301.68-12.72L301.68-12.72Q301.52-9.84 301.52-8.16L301.52-8.16L301.52-8.16Q301.52-4.56 303.16-2.84L303.16-2.84L303.16-2.84Q304.80-1.12 307.28-1.12L307.28-1.12L307.28-1.12Q309.76-1.12 311.80-2.08L311.80-2.08L311.80-2.08Q313.84-3.04 315.04-4.36L315.04-4.36L315.04-4.36Q316.24-5.68 317.12-7.12L317.12-7.12L317.12-7.12Q318.72-9.76 318.72-10.48L318.72-10.48L320.16-9.84L320.16-9.84Q319.92-8.56 318.72-6.44L318.72-6.44L318.72-6.44Q317.52-4.32 316.08-2.96L316.08-2.96L316.08-2.96Q314.64-1.60 311.84-0.44L311.84-0.44L311.84-0.44Q309.04 0.72 305.60 0.72L305.60 0.72L305.60 0.72Q299.12 0.72 295.80-2.36L295.80-2.36L295.80-2.36Q292.48-5.44 292.48-10.80L292.48-10.80L292.48-10.80Q292.48-20.32 297.20-25.72L297.20-25.72L297.20-25.72Q301.92-31.12 309.84-31.12zM318.00-23.04L318.00-23.04Q318.00-25.68 316.44-27.40L316.44-27.40L316.44-27.40Q314.88-29.12 311.80-29.12L311.80-29.12L311.80-29.12Q308.72-29.12 305.80-25.44L305.80-25.44L305.80-25.44Q302.88-21.76 301.92-14.56L301.92-14.56L301.92-14.56Q318.00-14.64 318.00-23.04L318.00-23.04" fill="#93dbe9" stroke="none" stroke-width="none" transform="translate(-516.8000612258911,22.567326058607833)" style="fill: rgb(179, 183, 226);"></path></g><g class="path" style="transform: scale(0.91); transform-origin: -162.88px 1.44733px; animation: 4.16667s linear -1.90385s infinite normal forwards running breath-ab07f10c-8cc9-4bfe-a6e1-4bbca4f44520;"><path d="M342.24-30.40L346.32-30.40L348.48-42.24L348.48-42.24Q354.40-42.24 357.28-42.72L357.28-42.72L358.32-42.96L358.32-42.96Q357.20-37.36 355.84-30.40L355.84-30.40L365.76-30.40L365.60-28.96L355.60-28.96L355.60-28.96Q351.60-8.32 351.60-4.08L351.60-4.08L351.60-4.08Q351.60-1.52 354.32-1.52L354.32-1.52L354.32-1.52Q357.04-1.52 359.28-4.96L359.28-4.96L359.28-4.96Q361.52-8.40 362.48-12.40L362.48-12.40L363.92-11.92L363.92-11.92Q360.96 0.72 351.68 0.72L351.68 0.72L351.68 0.72Q347.84 0.72 345.28-1.40L345.28-1.40L345.28-1.40Q342.72-3.52 342.72-7.32L342.72-7.32L342.72-7.32Q342.72-11.12 346.00-28.96L346.00-28.96L342.08-28.96L342.24-30.40" fill="#93dbe9" stroke="none" stroke-width="none" transform="translate(-516.8000612258911,22.567326058607833)" style="fill: rgb(147, 219, 233);"></path></g><g class="path" style="transform: scale(0.91); transform-origin: -134px 7.36732px; animation: 4.16667s linear -1.79808s infinite normal forwards running breath-ab07f10c-8cc9-4bfe-a6e1-4bbca4f44520;"><path d="M379.68 0.72L379.68 0.72Q373.52 0.72 370.32-2.36L370.32-2.36L370.32-2.36Q367.12-5.44 367.12-10.12L367.12-10.12L367.12-10.12Q367.12-14.80 367.96-18.12L367.96-18.12L367.96-18.12Q368.80-21.44 370.72-24.52L370.72-24.52L370.72-24.52Q372.64-27.60 376.52-29.36L376.52-29.36L376.52-29.36Q380.40-31.12 386.20-31.12L386.20-31.12L386.20-31.12Q392.00-31.12 395.24-28.04L395.24-28.04L395.24-28.04Q398.48-24.96 398.48-19.60L398.48-19.60L398.48-19.60Q398.48-10.48 393.64-4.88L393.64-4.88L393.64-4.88Q388.80 0.72 379.68 0.72L379.68 0.72zM376.16-7.52L376.16-7.52L376.16-7.52Q376.16-1.12 379.88-1.12L379.88-1.12L379.88-1.12Q383.60-1.12 386.52-7.56L386.52-7.56L386.52-7.56Q389.44-14 389.44-22.88L389.44-22.88L389.44-22.88Q389.44-29.60 385.80-29.60L385.80-29.60L385.80-29.60Q382.16-29.60 379.16-23.48L379.16-23.48L379.16-23.48Q376.16-17.36 376.16-7.52" fill="#93dbe9" stroke="none" stroke-width="none" transform="translate(-516.8000612258911,22.567326058607833)" style="fill: rgb(104, 156, 197);"></path></g><g class="path" style="transform: scale(0.91); transform-origin: -69.2px 7.36732px; animation: 4.16667s linear -1.69231s infinite normal forwards running breath-ab07f10c-8cc9-4bfe-a6e1-4bbca4f44520;"><path d="M449.92-0.88L449.92-0.88L449.92-0.88Q451.84-0.88 453.92-3.12L453.92-3.12L455.12-2.16L455.12-2.16Q454.56-1.04 452.64-0.16L452.64-0.16L452.64-0.16Q450.72 0.72 448.40 0.72L448.40 0.72L448.40 0.72Q441.12 0.72 441.12-5.84L441.12-5.84L441.12-5.84Q441.12-8.64 442.56-15.84L442.56-15.84L442.56-15.84Q444.00-23.04 444.00-25.28L444.00-25.28L444.00-25.28Q444.00-28.72 440.72-28.72L440.72-28.72L440.72-28.72Q435.76-28.72 432.40-16L432.40-16L429.52 0L419.92 0L425.20-29.52L425.20-29.52Q422.80-29.28 421.20-27.28L421.20-27.28L420.00-28.24L420.00-28.24Q422.40-31.12 426.04-31.12L426.04-31.12L426.04-31.12Q429.68-31.12 431.68-29.28L431.68-29.28L431.68-29.28Q433.68-27.44 433.68-24.08L433.68-24.08L433.68-23.84L433.68-23.84Q436.80-31.12 443.12-31.12L443.12-31.12L443.12-31.12Q447.60-31.12 450.20-28.68L450.20-28.68L450.20-28.68Q452.80-26.24 453.04-21.84L453.04-21.84L453.04-21.84Q454.56-26.24 456.88-28.68L456.88-28.68L456.88-28.68Q459.20-31.12 463.60-31.12L463.60-31.12L463.60-31.12Q468.00-31.12 470.64-28.44L470.64-28.44L470.64-28.44Q473.28-25.76 473.28-21.04L473.28-21.04L473.28-21.04Q473.28-18.56 471.76-11.48L471.76-11.48L471.76-11.48Q470.24-4.40 470.08-0.88L470.08-0.88L470.08-0.88Q472.00-0.88 474.08-3.12L474.08-3.12L475.28-2.16L475.28-2.16Q474.72-1.04 472.80-0.16L472.80-0.16L472.80-0.16Q470.88 0.72 468.56 0.72L468.56 0.72L468.56 0.72Q461.28 0.72 461.28-5.84L461.28-5.84L461.28-5.84Q461.28-8.64 462.72-15.84L462.72-15.84L462.72-15.84Q464.16-23.04 464.16-25.28L464.16-25.28L464.16-25.28Q464.16-28.72 460.88-28.72L460.88-28.72L460.88-28.72Q455.12-28.72 451.60-11.60L451.60-11.60L451.60-11.60Q450.08-4.32 449.92-0.88" fill="#93dbe9" stroke="none" stroke-width="none" transform="translate(-516.8000612258911,22.567326058607833)" style="fill: rgb(94, 111, 163);"></path></g><g class="path" style="transform: scale(0.91); transform-origin: -20.16px 14.3673px; animation: 4.16667s linear -1.58654s infinite normal forwards running breath-ab07f10c-8cc9-4bfe-a6e1-4bbca4f44520;"><path d="M484.00-29.52L484.00-29.52L484.00-29.52Q482.08-29.52 480.00-27.28L480.00-27.28L478.80-28.24L478.80-28.24Q479.36-29.36 481.28-30.24L481.28-30.24L481.28-30.24Q483.20-31.12 485.52-31.12L485.52-31.12L485.52-31.12Q492.80-31.12 492.80-24.56L492.80-24.56L492.80-24.56Q492.80-21.76 491.28-15.40L491.28-15.40L491.28-15.40Q489.76-9.04 489.76-6.80L489.76-6.80L489.76-6.80Q489.76-2.96 492.96-2.96L492.96-2.96L492.96-2.96Q495.60-2.96 498.12-6.56L498.12-6.56L498.12-6.56Q500.64-10.16 502.24-16.24L502.24-16.24L504.88-30.40L504.88-30.40Q510.80-30.40 513.52-30.88L513.52-30.88L514.56-31.12L509.52-2.80L509.52-2.80Q508.08 5.44 502.84 10.08L502.84 10.08L502.84 10.08Q497.60 14.72 489.28 14.72L489.28 14.72L489.28 14.72Q484.24 14.72 481.48 13L481.48 13L481.48 13Q478.72 11.28 478.72 8.52L478.72 8.52L478.72 8.52Q478.72 5.76 480.40 4.12L480.40 4.12L480.40 4.12Q482.08 2.48 485.16 2.48L485.16 2.48L485.16 2.48Q488.24 2.48 490.88 3.48L490.88 3.48L490.88 3.48Q493.52 4.48 494.72 4.64L494.72 4.64L494.56 6.08L494.56 6.08Q493.20 5.92 490.64 4.96L490.64 4.96L490.64 4.96Q488.08 4 485.56 4L485.56 4L485.56 4Q483.04 4 481.72 5.12L481.72 5.12L481.72 5.12Q480.40 6.24 480.40 8.36L480.40 8.36L480.40 8.36Q480.40 10.48 482.72 11.80L482.72 11.80L482.72 11.80Q485.04 13.12 488.48 13.12L488.48 13.12L488.48 13.12Q496.80 13.12 498.72 3.12L498.72 3.12L500.72-7.92L500.72-7.92Q497.36-0.56 490.56-0.56L490.56-0.56L490.56-0.56Q485.92-0.56 483.40-3.20L483.40-3.20L483.40-3.20Q480.88-5.84 480.88-10.64L480.88-10.64L480.88-10.64Q480.88-13.12 482.36-19.56L482.36-19.56L482.36-19.56Q483.84-26 484.00-29.52" fill="#93dbe9" stroke="none" stroke-width="none" transform="translate(-516.8000612258911,22.567326058607833)" style="fill: rgb(59, 67, 104);"></path></g><g class="path" style="transform: scale(0.91); transform-origin: 44.1599px 5.92733px; animation: 4.16667s linear -1.48077s infinite normal forwards running breath-ab07f10c-8cc9-4bfe-a6e1-4bbca4f44520;"><path d="M546.80-10.88L546.80-10.88L546.80-10.88Q546.80 1.12 554.56 4.96L554.56 4.96L554.56 4.96Q556.48 5.20 559.60 5.20L559.60 5.20L559.60 5.20Q562.72 5.20 566.20 4.28L566.20 4.28L566.20 4.28Q569.68 3.36 571.84 1.92L571.84 1.92L571.84 1.92Q574.88 0 576.40-1.76L576.40-1.76L576.40-1.76Q576.88-3.52 577.72-7.40L577.72-7.40L577.72-7.40Q578.56-11.28 579.04-13.28L579.04-13.28L580.72-12.88L580.72-12.88Q580.08-10.40 579.16-6.24L579.16-6.24L579.16-6.24Q578.24-2.08 577.80-0.28L577.80-0.28L577.80-0.28Q577.36 1.52 576.52 4.36L576.52 4.36L576.52 4.36Q575.68 7.20 574.88 8.52L574.88 8.52L574.88 8.52Q574.08 9.84 572.72 11.44L572.72 11.44L572.72 11.44Q570.56 14.08 565.84 15.44L565.84 15.44L565.52 13.76L565.52 13.76Q569.60 12.88 571.84 9.80L571.84 9.80L571.84 9.80Q574.08 6.72 575.68 1.12L575.68 1.12L575.68 1.12Q569.20 6.96 558.84 6.96L558.84 6.96L558.84 6.96Q548.48 6.96 542.92 1.08L542.92 1.08L542.92 1.08Q537.36-4.80 537.36-15.52L537.36-15.52L537.36-15.52Q537.36-30 546.72-39.36L546.72-39.36L546.72-39.36Q556.08-48.72 571.28-48.72L571.28-48.72L571.28-48.72Q578.32-48.72 581.44-46.20L581.44-46.20L581.44-46.20Q584.56-43.68 584.56-38.32L584.56-38.32L584.56-38.32Q584.56-34.72 581.04-29.44L581.04-29.44L581.04-29.44Q577.84-24.32 577.84-21.44L577.84-21.44L576.08-21.44L576.08-21.44Q576.08-23.04 576.72-24.88L576.72-24.88L576.72-24.88Q577.36-26.72 577.84-27.52L577.84-27.52L577.84-27.52Q578.32-28.32 579.60-30.40L579.60-30.40L579.60-30.40Q582.72-35.12 582.72-38.16L582.72-38.16L582.72-38.16Q582.72-44.56 577.44-46.24L577.44-46.24L577.44-46.24Q574.96-47.04 572.24-47.04L572.24-47.04L572.24-47.04Q569.52-47.04 566.48-46.72L566.48-46.72L566.48-46.72Q563.68-45.84 561.16-44.44L561.16-44.44L561.16-44.44Q558.64-43.04 555.92-40.20L555.92-40.20L555.92-40.20Q553.20-37.36 551.28-33.60L551.28-33.60L551.28-33.60Q549.36-29.84 548.08-23.96L548.08-23.96L548.08-23.96Q546.80-18.08 546.80-10.88" fill="#93dbe9" stroke="none" stroke-width="none" transform="translate(-516.8000612258911,22.567326058607833)" style="fill: rgb(25, 29, 58);"></path></g><g class="path" style="transform: scale(0.91); transform-origin: 78.3599px 7.36732px; animation: 4.16667s linear -1.375s infinite normal forwards running breath-ab07f10c-8cc9-4bfe-a6e1-4bbca4f44520;"><path d="M601.84-2.16L601.84-2.16Q599.44 0.72 595.84 0.72L595.84 0.72L595.84 0.72Q592.24 0.72 590.20-1.12L590.20-1.12L590.20-1.12Q588.16-2.96 588.16-5.92L588.16-5.92L588.16-5.92Q588.16-6.96 589.44-14.64L589.44-14.64L592.08-28.96L588.72-28.96L588.88-30.40L592.32-30.40L592.32-30.40Q598.24-30.40 601.04-30.88L601.04-30.88L602.16-31.12L596.64-0.88L596.64-0.88Q599.04-1.12 600.64-3.12L600.64-3.12L601.84-2.16" fill="#93dbe9" stroke="none" stroke-width="none" transform="translate(-516.8000612258911,22.567326058607833)" style="fill: rgb(217, 219, 238);"></path></g><g class="path" style="transform: scale(0.91); transform-origin: 82.1199px -20.3527px; animation: 4.16667s linear -1.26923s infinite normal forwards running breath-ab07f10c-8cc9-4bfe-a6e1-4bbca4f44520;"><path d="M594.80-38.80L594.80-38.80L594.80-38.80Q593.12-40.48 593.12-42.88L593.12-42.88L593.12-42.88Q593.12-45.28 594.80-47L594.80-47L594.80-47Q596.48-48.72 598.88-48.72L598.88-48.72L598.88-48.72Q601.28-48.72 603.00-47L603.00-47L603.00-47Q604.72-45.28 604.72-42.88L604.72-42.88L604.72-42.88Q604.72-40.48 603.00-38.80L603.00-38.80L603.00-38.80Q601.28-37.12 598.88-37.12L598.88-37.12L598.88-37.12Q596.48-37.12 594.80-38.80" fill="#93dbe9" stroke="none" stroke-width="none" transform="translate(-516.8000612258911,22.567326058607833)" style="fill: rgb(179, 183, 226);"></path></g><g class="path" style="transform: scale(0.91); transform-origin: 102.16px 1.44733px; animation: 4.16667s linear -1.16346s infinite normal forwards running breath-ab07f10c-8cc9-4bfe-a6e1-4bbca4f44520;"><path d="M607.28-30.40L611.36-30.40L613.52-42.24L613.52-42.24Q619.44-42.24 622.32-42.72L622.32-42.72L623.36-42.96L623.36-42.96Q622.24-37.36 620.88-30.40L620.88-30.40L630.80-30.40L630.64-28.96L620.64-28.96L620.64-28.96Q616.64-8.32 616.64-4.08L616.64-4.08L616.64-4.08Q616.64-1.52 619.36-1.52L619.36-1.52L619.36-1.52Q622.08-1.52 624.32-4.96L624.32-4.96L624.32-4.96Q626.56-8.40 627.52-12.40L627.52-12.40L628.96-11.92L628.96-11.92Q626.00 0.72 616.72 0.72L616.72 0.72L616.72 0.72Q612.88 0.72 610.32-1.40L610.32-1.40L610.32-1.40Q607.76-3.52 607.76-7.32L607.76-7.32L607.76-7.32Q607.76-11.12 611.04-28.96L611.04-28.96L607.12-28.96L607.28-30.40" fill="#93dbe9" stroke="none" stroke-width="none" transform="translate(-516.8000612258911,22.567326058607833)" style="fill: rgb(147, 219, 233);"></path></g><g class="path" style="transform: scale(0.91); transform-origin: 152.08px 4.96732px; animation: 4.16667s linear -1.05769s infinite normal forwards running breath-ab07f10c-8cc9-4bfe-a6e1-4bbca4f44520;"><path d="M673.92-44.24L673.92-44.24L673.92-44.24Q667.60-46.96 660.20-46.96L660.20-46.96L660.20-46.96Q652.80-46.96 648.20-42.24L648.20-42.24L648.20-42.24Q643.60-37.52 643.60-29.92L643.60-29.92L641.84-29.92L641.84-29.92Q641.84-38.24 646.96-43.48L646.96-43.48L646.96-43.48Q652.08-48.72 660.08-48.72L660.08-48.72L660.08-48.72Q666.48-48.72 673.92-46.24L673.92-46.24L673.92-46.24Q682.48-43.12 692.48-43.12L692.48-43.12L692.48-41.44L692.48-41.44Q686.48-41.44 682.88-42L682.88-42L682.88-42Q682.80-41.68 682.32-39.36L682.32-39.36L682.32-39.36Q679.36-26.24 677.52-18.48L677.52-18.48L698.96-18.48L707.12-53.20L708.80-53.20L697.60-5.12L697.60-5.12Q696.88-2.16 696.88-1.12L696.88-1.12L696.88-1.12Q696.88 2.24 700.00 2.24L700.00 2.24L700.00 2.24Q702.24 2.24 703.92-0.08L703.92-0.08L705.04 0.88L705.04 0.88Q704.48 1.92 703.04 2.84L703.04 2.84L703.04 2.84Q701.60 3.76 699.56 3.76L699.56 3.76L699.56 3.76Q697.52 3.76 696.36 2.40L696.36 2.40L696.36 2.40Q695.20 1.04 695.20-0.88L695.20-0.88L696.16-6.16L698.64-17.04L677.12-17.04L677.12-17.04Q676.24-13.68 675.36-9.76L675.36-9.76L675.36-9.76Q674.48-5.84 673.24-2.08L673.24-2.08L673.24-2.08Q672.00 1.68 669.84 5.68L669.84 5.68L669.84 5.68Q667.68 9.68 665.00 12.20L665.00 12.20L665.00 12.20Q662.32 14.72 658.28 16.36L658.28 16.36L658.28 16.36Q654.24 18 649.56 18L649.56 18L649.56 18Q644.88 18 640.72 16.24L640.72 16.24L640.72 16.24Q636.56 14.48 633.76 11.36L633.76 11.36L633.76 11.36Q628.96 5.84 628.96-2L628.96-2L628.96-2Q628.96-3.28 629.04-4.56L629.04-4.56L630.80-4.32L630.80-4.32Q630.72-3.20 630.72-2.08L630.72-2.08L630.72-2.08Q630.72 5.36 635.24 10.36L635.24 10.36L635.24 10.36Q639.76 15.36 647.44 15.36L647.44 15.36L647.44 15.36Q655.12 15.36 658.24 11.28L658.24 11.28L658.24 11.28Q661.36 7.20 664.20-4.40L664.20-4.40L664.20-4.40Q667.04-16 673.92-44.24" fill="#93dbe9" stroke="none" stroke-width="none" transform="translate(-516.8000612258911,22.567326058607833)" style="fill: rgb(104, 156, 197);"></path></g><g class="path" style="transform: scale(0.91); transform-origin: 212.44px 7.36732px; animation: 4.16667s linear -0.951923s infinite normal forwards running breath-ab07f10c-8cc9-4bfe-a6e1-4bbca4f44520;"><path d="M716.56-29.52L716.56-29.52L716.56-29.52Q714.64-29.52 712.56-27.28L712.56-27.28L711.36-28.24L711.36-28.24Q711.92-29.36 713.84-30.24L713.84-30.24L713.84-30.24Q715.76-31.12 718.08-31.12L718.08-31.12L718.08-31.12Q725.36-31.12 725.36-24.56L725.36-24.56L725.36-24.56Q725.36-21.76 723.92-14.56L723.92-14.56L723.92-14.56Q722.48-7.36 722.48-5.12L722.48-5.12L722.48-5.12Q722.48-1.68 725.76-1.68L725.76-1.68L725.76-1.68Q728.08-1.68 730.28-4.40L730.28-4.40L730.28-4.40Q732.48-7.12 734.08-11.92L734.08-11.92L737.44-30.40L737.44-30.40Q743.36-30.40 746.08-30.88L746.08-30.88L747.12-31.12L741.76-0.88L741.76-0.88Q744.16-1.12 745.76-3.12L745.76-3.12L746.96-2.16L746.96-2.16Q744.56 0.72 740.96 0.72L740.96 0.72L740.96 0.72Q737.36 0.72 735.36-1.04L735.36-1.04L735.36-1.04Q733.36-2.80 733.28-6L733.28-6L733.28-6Q729.92 0.72 723.36 0.72L723.36 0.72L723.36 0.72Q718.64 0.72 716.00-1.96L716.00-1.96L716.00-1.96Q713.36-4.64 713.36-9.36L713.36-9.36L713.36-9.36Q713.36-11.84 714.88-18.92L714.88-18.92L714.88-18.92Q716.40-26 716.56-29.52" fill="#93dbe9" stroke="none" stroke-width="none" transform="translate(-516.8000612258911,22.567326058607833)" style="fill: rgb(94, 111, 163);"></path></g><g class="path" style="transform: scale(0.91); transform-origin: 250.68px -2.27267px; animation: 4.16667s linear -0.846154s infinite normal forwards running breath-ab07f10c-8cc9-4bfe-a6e1-4bbca4f44520;"><path d="M766.08 0.72L766.08 0.72L766.08 0.72Q761.04 0.72 758.72-2.64L758.72-2.64L752.00 2.16L750.48 2.16L759.44-50.24L759.44-50.24Q757.04-50 755.44-48L755.44-48L754.24-48.96L754.24-48.96Q756.64-51.84 760.28-51.84L760.28-51.84L760.28-51.84Q763.92-51.84 765.92-50L765.92-50L765.92-50Q767.92-48.16 767.92-44.80L767.92-44.80L767.92-44.80Q767.92-44.16 767.76-42.72L767.76-42.72L767.76-42.72Q766.48-35.60 764.64-25.60L764.64-25.60L764.64-25.60Q768.00-31.04 773.36-31.04L773.36-31.04L773.36-31.04Q778.72-31.04 781.60-27.96L781.60-27.96L781.60-27.96Q784.48-24.88 784.48-19.52L784.48-19.52L784.48-19.52Q784.48-10.08 779.36-4.68L779.36-4.68L779.36-4.68Q774.24 0.72 766.08 0.72zM765.52-1.44L765.52-1.44L765.52-1.44Q769.92-1.44 772.68-7.56L772.68-7.56L772.68-7.56Q775.44-13.68 775.44-22.80L775.44-22.80L775.44-22.80Q775.44-26.48 774.68-27.84L774.68-27.84L774.68-27.84Q773.92-29.20 771.92-29.20L771.92-29.20L771.92-29.20Q769.92-29.20 767.80-26.80L767.80-26.80L767.80-26.80Q765.68-24.40 764.72-22.28L764.72-22.28L764.72-22.28Q763.76-20.16 763.76-19.84L763.76-19.84L763.60-19.84L763.60-19.84Q761.60-9.36 760.64-4L760.64-4L760.64-4Q762.00-1.44 765.52-1.44" fill="#93dbe9" stroke="none" stroke-width="none" transform="translate(-516.8000612258911,22.567326058607833)" style="fill: rgb(59, 67, 104);"></path></g><g class="path" style="transform: scale(0.91); transform-origin: 327.32px 2.32732px; animation: 4.16667s linear -0.740385s infinite normal forwards running breath-ab07f10c-8cc9-4bfe-a6e1-4bbca4f44520;"><path d="M838.48 9.20L838.48 9.20L838.48 9.20Q833.36 12.24 827.44 12.24L827.44 12.24L827.44 12.24Q821.52 12.24 818.40 10.36L818.40 10.36L818.40 10.36Q815.28 8.48 815.28 5.64L815.28 5.64L815.28 5.64Q815.28 2.80 817.56 1.08L817.56 1.08L817.56 1.08Q819.84-0.64 824.40-0.64L824.40-0.64L824.40-0.64Q830.64-0.64 835.60 4L835.60 4L835.60 4Q836.56 1.04 837.20-2.56L837.20-2.56L837.68-5.52L834.32-5.52L834.32-7.28L838-7.28L844.08-42L844.08-42Q844.48-44.96 845.20-46.80L845.20-46.80L845.20-46.80Q828.64-45.52 819.64-39.80L819.64-39.80L819.64-39.80Q810.64-34.08 810.64-24.80L810.64-24.80L810.64-24.80Q810.64-20.64 813.52-17.76L813.52-17.76L813.52-17.76Q815.52-15.84 818.80-14.84L818.80-14.84L818.80-14.84Q822.08-13.84 824.20-13.72L824.20-13.72L824.20-13.72Q826.32-13.60 826.48-13.76L826.48-13.76L826.48-12.08L826.48-12.08Q817.04-12.08 812.48-16.56L812.48-16.56L812.48-16.56Q809.12-19.68 809.12-24.80L809.12-24.80L809.12-24.80Q809.12-34.96 818.64-41.08L818.64-41.08L818.64-41.08Q828.16-47.20 845.84-48.40L845.84-48.40L845.84-48.40Q849.60-56.80 859.84-56.80L859.84-56.80L859.84-54.72L859.84-54.72Q857.84-54.48 857.08-53.12L857.08-53.12L857.08-53.12Q856.32-51.76 855.76-48.72L855.76-48.72L855.76-48.72Q862.40-48.64 867.16-47.08L867.16-47.08L867.16-47.08Q871.92-45.52 874.40-42.96L874.40-42.96L874.40-42.96Q879.12-38.08 879.12-31.52L879.12-31.52L879.12-31.52Q879.12-26.48 877.24-22.36L877.24-22.36L877.24-22.36Q875.36-18.24 872.48-15.60L872.48-15.60L872.48-15.60Q869.60-12.96 865.44-11.04L865.44-11.04L865.44-11.04Q858.56-7.76 848.88-6.40L848.88-6.40L848.88-6.24L848.88-6.24Q847.20 3.12 839.92 8.24L839.92 8.24L839.92 8.24Q843.20 11.20 847.12 12.88L847.12 12.88L847.12 12.88Q851.04 14.56 857.20 14.56L857.20 14.56L857.20 16.32L857.20 16.32Q850.56 16.32 846.28 14.44L846.28 14.44L846.28 14.44Q842 12.56 838.48 9.20zM877.04-31.52L877.04-31.52L877.04-31.52Q877.04-38.56 871.72-42.80L871.72-42.80L871.72-42.80Q866.40-47.04 855.60-47.20L855.60-47.20L855.60-47.20Q852.64-25.44 849.28-8.24L849.28-8.24L849.28-8.24Q877.04-12.24 877.04-31.52zM834.96 5.76L834.96 5.76Q832.40 3.36 830.08 2.12L830.08 2.12L830.08 2.12Q827.76 0.88 824.44 0.88L824.44 0.88L824.44 0.88Q821.12 0.88 819.16 2.12L819.16 2.12L819.16 2.12Q817.20 3.36 817.20 5.56L817.20 5.56L817.20 5.56Q817.20 7.76 819.76 9.24L819.76 9.24L819.76 9.24Q822.32 10.72 825.92 10.72L825.92 10.72L825.92 10.72Q829.52 10.72 831.64 9.68L831.64 9.68L831.64 9.68Q833.76 8.64 834.96 5.76L834.96 5.76" fill="#93dbe9" stroke="none" stroke-width="none" transform="translate(-516.8000612258911,22.567326058607833)" style="fill: rgb(25, 29, 58);"></path></g><g class="path" style="transform: scale(0.91); transform-origin: 380.48px 7.00733px; animation: 4.16667s linear -0.634615s infinite normal forwards running breath-ab07f10c-8cc9-4bfe-a6e1-4bbca4f44520;"><path d="M883.92-27.28L882.72-28.24L882.72-28.24Q885.12-31.12 888.76-31.12L888.76-31.12L888.76-31.12Q892.40-31.12 894.40-29.28L894.40-29.28L894.40-29.28Q896.40-27.44 896.40-24.08L896.40-24.08L896.40-23.60L896.40-23.60Q900-31.12 905.76-31.12L905.76-31.12L905.76-31.12Q911.92-31.12 911.92-24.72L911.92-24.72L911.92-24.72Q911.92-22.08 910.16-19.12L910.16-19.12L910.16-19.12Q908.40-16.16 906.64-13.48L906.64-13.48L906.64-13.48Q904.88-10.80 904.88-8.72L904.88-8.72L902.96-8.72L902.96-8.72Q902.96-11.68 906.40-16.72L906.40-16.72L906.40-16.72Q909.84-21.76 909.84-24.52L909.84-24.52L909.84-24.52Q909.84-27.28 908.76-28.28L908.76-28.28L908.76-28.28Q907.68-29.28 905.56-29.28L905.56-29.28L905.56-29.28Q903.44-29.28 901.40-27.44L901.40-27.44L901.40-27.44Q899.36-25.60 898-22.80L898-22.80L898-22.80Q895.84-18.64 895.12-16L895.12-16L895.12-15.92L892.24 0L882.64 0L887.92-29.52L887.92-29.52Q885.52-29.28 883.92-27.28L883.92-27.28" fill="#93dbe9" stroke="none" stroke-width="none" transform="translate(-516.8000612258911,22.567326058607833)" style="fill: rgb(217, 219, 238);"></path></g><g class="path" style="transform: scale(0.91); transform-origin: 412.48px 7.36732px; animation: 4.16667s linear -0.528846s infinite normal forwards running breath-ab07f10c-8cc9-4bfe-a6e1-4bbca4f44520;"><path d="M926.16 0.72L926.16 0.72Q920 0.72 916.80-2.36L916.80-2.36L916.80-2.36Q913.60-5.44 913.60-10.12L913.60-10.12L913.60-10.12Q913.60-14.80 914.44-18.12L914.44-18.12L914.44-18.12Q915.28-21.44 917.20-24.52L917.20-24.52L917.20-24.52Q919.12-27.60 923-29.36L923-29.36L923-29.36Q926.88-31.12 932.68-31.12L932.68-31.12L932.68-31.12Q938.48-31.12 941.72-28.04L941.72-28.04L941.72-28.04Q944.96-24.96 944.96-19.60L944.96-19.60L944.96-19.60Q944.96-10.48 940.12-4.88L940.12-4.88L940.12-4.88Q935.28 0.72 926.16 0.72L926.16 0.72zM922.64-7.52L922.64-7.52L922.64-7.52Q922.64-1.12 926.36-1.12L926.36-1.12L926.36-1.12Q930.08-1.12 933-7.56L933-7.56L933-7.56Q935.92-14 935.92-22.88L935.92-22.88L935.92-22.88Q935.92-29.60 932.28-29.60L932.28-29.60L932.28-29.60Q928.64-29.60 925.64-23.48L925.64-23.48L925.64-23.48Q922.64-17.36 922.64-7.52" fill="#93dbe9" stroke="none" stroke-width="none" transform="translate(-516.8000612258911,22.567326058607833)" style="fill: rgb(179, 183, 226);"></path></g><g class="path" style="transform: scale(0.91); transform-origin: 444.16px -0.552675px; animation: 4.16667s linear -0.423077s infinite normal forwards running breath-ab07f10c-8cc9-4bfe-a6e1-4bbca4f44520;"><path d="M967.36-51.84L967.36-51.84L967.36-51.84Q970.24-51.84 972.12-49.68L972.12-49.68L972.12-49.68Q974.00-47.52 974.00-43.20L974.00-43.20L974.00-43.20Q974.00-38.88 970.56-30.40L970.56-30.40L973.60-30.40L973.44-28.96L969.92-28.96L969.92-28.96Q967.20-22.16 967.20-18.64L967.20-18.64L965.76-18.64L965.76-18.64Q965.76-22.80 968.40-28.96L968.40-28.96L963.76-28.96L963.76-28.96Q961.36-16.40 957.60 5.60L957.60 5.60L947.92 5.60L954.08-28.96L949.20-28.96L949.36-30.40L954.32-30.40L955.60-37.28L955.60-37.28Q956.88-45.20 959.56-48.52L959.56-48.52L959.56-48.52Q962.24-51.84 967.36-51.84zM972.48-43.36L972.48-43.36L972.48-43.36Q972.48-46.24 971.16-48.32L971.16-48.32L971.16-48.32Q969.84-50.40 967.92-50.40L967.92-50.40L967.92-50.40Q967.12-47.28 964.00-30.40L964.00-30.40L968.96-30.40L968.96-30.40Q972.48-38.40 972.48-43.36" fill="#93dbe9" stroke="none" stroke-width="none" transform="translate(-516.8000612258911,22.567326058607833)" style="fill: rgb(147, 219, 233);"></path></g><g class="path" style="transform: scale(0.91); transform-origin: 464.2px 7.36732px; animation: 4.16667s linear -0.317308s infinite normal forwards running breath-ab07f10c-8cc9-4bfe-a6e1-4bbca4f44520;"><path d="M987.68-2.16L987.68-2.16Q985.28 0.72 981.68 0.72L981.68 0.72L981.68 0.72Q978.08 0.72 976.04-1.12L976.04-1.12L976.04-1.12Q974-2.96 974-5.92L974-5.92L974-5.92Q974-6.96 975.28-14.64L975.28-14.64L977.92-28.96L974.56-28.96L974.72-30.40L978.16-30.40L978.16-30.40Q984.08-30.40 986.88-30.88L986.88-30.88L988-31.12L982.48-0.88L982.48-0.88Q984.88-1.12 986.48-3.12L986.48-3.12L987.68-2.16" fill="#93dbe9" stroke="none" stroke-width="none" transform="translate(-516.8000612258911,22.567326058607833)" style="fill: rgb(104, 156, 197);"></path></g><g class="path" style="transform: scale(0.91); transform-origin: 467.96px -20.3527px; animation: 4.16667s linear -0.211538s infinite normal forwards running breath-ab07f10c-8cc9-4bfe-a6e1-4bbca4f44520;"><path d="M980.64-38.80L980.64-38.80L980.64-38.80Q978.96-40.48 978.96-42.88L978.96-42.88L978.96-42.88Q978.96-45.28 980.64-47L980.64-47L980.64-47Q982.32-48.72 984.72-48.72L984.72-48.72L984.72-48.72Q987.12-48.72 988.84-47L988.84-47L988.84-47Q990.56-45.28 990.56-42.88L990.56-42.88L990.56-42.88Q990.56-40.48 988.84-38.80L988.84-38.80L988.84-38.80Q987.12-37.12 984.72-37.12L984.72-37.12L984.72-37.12Q982.32-37.12 980.64-38.80" fill="#93dbe9" stroke="none" stroke-width="none" transform="translate(-516.8000612258911,22.567326058607833)" style="fill: rgb(94, 111, 163);"></path></g><g class="path" style="transform: scale(0.91); transform-origin: 487px -2.99267px; animation: 4.16667s linear -0.105769s infinite normal forwards running breath-ab07f10c-8cc9-4bfe-a6e1-4bbca4f44520;"><path d="M1006.88-2.88L1006.88-2.88L1006.88-2.88Q1005.84-1.52 1004.04-0.40L1004.04-0.40L1004.04-0.40Q1002.24 0.72 999.36 0.72L999.36 0.72L999.36 0.72Q996.48 0.72 994.48-1.12L994.48-1.12L994.48-1.12Q992.48-2.96 992.48-6.32L992.48-6.32L992.48-6.32Q992.48-6.96 992.64-8.40L992.64-8.40L997.84-37.20L997.84-37.20Q999.28-45.12 1001.80-48.48L1001.80-48.48L1001.80-48.48Q1004.32-51.84 1008.48-51.84L1008.48-51.84L1008.48-51.84Q1011.36-51.84 1013.24-49.68L1013.24-49.68L1013.24-49.68Q1015.12-47.52 1015.12-43.12L1015.12-43.12L1015.12-43.12Q1015.12-38.72 1011.72-30.56L1011.72-30.56L1011.72-30.56Q1008.32-22.40 1008.32-18.64L1008.32-18.64L1006.88-18.64L1006.88-18.64Q1006.88-22.88 1010.24-30.76L1010.24-30.76L1010.24-30.76Q1013.60-38.64 1013.60-43.36L1013.60-43.36L1013.60-43.36Q1013.60-46.24 1012.28-48.32L1012.28-48.32L1012.28-48.32Q1010.96-50.40 1009.04-50.40L1009.04-50.40L1009.04-50.40Q1008.96-48.32 1006.28-31.72L1006.28-31.72L1006.28-31.72Q1003.60-15.12 1000.96-0.88L1000.96-0.88L1000.96-0.88Q1003.20-0.88 1005.12-3.20L1005.12-3.20L1005.12-3.20Q1007.04-5.52 1007.84-7.84L1007.84-7.84L1008.72-10.24L1010.16-9.60L1010.16-9.60Q1009.92-8.48 1008.92-6.36L1008.92-6.36L1008.92-6.36Q1007.92-4.24 1006.88-2.88" fill="#93dbe9" stroke="none" stroke-width="none" transform="translate(-516.8000612258911,22.567326058607833)" style="fill: rgb(59, 67, 104);"></path></g><g class="path" style="transform: scale(0.91); transform-origin: 511.44px 7.36732px; animation: 4.16667s linear 0s infinite normal forwards running breath-ab07f10c-8cc9-4bfe-a6e1-4bbca4f44520;"><path d="M1031.76-31.12L1031.76-31.12L1031.76-31.12Q1041.92-31.12 1041.92-23.04L1041.92-23.04L1041.92-23.04Q1041.92-18 1037.16-15.40L1037.16-15.40L1037.16-15.40Q1032.40-12.80 1023.60-12.72L1023.60-12.72L1023.60-12.72Q1023.44-9.84 1023.44-8.16L1023.44-8.16L1023.44-8.16Q1023.44-4.56 1025.08-2.84L1025.08-2.84L1025.08-2.84Q1026.72-1.12 1029.20-1.12L1029.20-1.12L1029.20-1.12Q1031.68-1.12 1033.72-2.08L1033.72-2.08L1033.72-2.08Q1035.76-3.04 1036.96-4.36L1036.96-4.36L1036.96-4.36Q1038.16-5.68 1039.04-7.12L1039.04-7.12L1039.04-7.12Q1040.64-9.76 1040.64-10.48L1040.64-10.48L1042.08-9.84L1042.08-9.84Q1041.84-8.56 1040.64-6.44L1040.64-6.44L1040.64-6.44Q1039.44-4.32 1038-2.96L1038-2.96L1038-2.96Q1036.56-1.60 1033.76-0.44L1033.76-0.44L1033.76-0.44Q1030.96 0.72 1027.52 0.72L1027.52 0.72L1027.52 0.72Q1021.04 0.72 1017.72-2.36L1017.72-2.36L1017.72-2.36Q1014.40-5.44 1014.40-10.80L1014.40-10.80L1014.40-10.80Q1014.40-20.32 1019.12-25.72L1019.12-25.72L1019.12-25.72Q1023.84-31.12 1031.76-31.12zM1039.92-23.04L1039.92-23.04Q1039.92-25.68 1038.36-27.40L1038.36-27.40L1038.36-27.40Q1036.80-29.12 1033.72-29.12L1033.72-29.12L1033.72-29.12Q1030.64-29.12 1027.72-25.44L1027.72-25.44L1027.72-25.44Q1024.80-21.76 1023.84-14.56L1023.84-14.56L1023.84-14.56Q1039.92-14.64 1039.92-23.04L1039.92-23.04" fill="#93dbe9" stroke="none" stroke-width="none" transform="translate(-516.8000612258911,22.567326058607833)" style="fill: rgb(25, 29, 58);"></path></g></g>
</g>
</g>
<style id="breath-ab07f10c-8cc9-4bfe-a6e1-4bbca4f44520" data-anikit="">@keyframes breath-ab07f10c-8cc9-4bfe-a6e1-4bbca4f44520
{
  0% {
    animation-timing-function: cubic-bezier(0.9647,0.2413,-0.0705,0.7911);
    transform: scale(0.9099999999999999);
  }
  51% {
    animation-timing-function: cubic-bezier(0.9226,0.2631,-0.0308,0.7628);
    transform: scale(1.02994);
  }
  100% {
    transform: scale(0.9099999999999999);
  }
}</style></svg>